<?xml version="1.0" encoding="UTF-8"?>
<svg enable-background="new 0 0 16 16" version="1.1" viewBox="0 0 16 16" xml:space="preserve" xmlns="http://www.w3.org/2000/svg">
<style type="text/css">
	.st0{fill:#007EFF;}
</style>
	<path class="st0" d="M8,10.3c-0.7,0-1.4,0.6-1.4,1.4S7.3,13,8,13s1.4-0.6,1.4-1.4S8.7,10.3,8,10.3z"/>
	<path class="st0" d="m8 0c-4.4 0-8 3.6-8 8s3.6 8 8 8 8-3.6 8-8-3.6-8-8-8zm0 14.5c-3.6 0-6.5-2.9-6.5-6.5s2.9-6.5 6.5-6.5 6.5 2.9 6.5 6.5-2.9 6.5-6.5 6.5z"/>
	<path class="st0" d="m8.2 3.4c-1.5 0-2.5 0.6-3.3 1.7-0.1 0.2 0 0.4 0.1 0.5l0.9 0.7c0.2 0.1 0.4 0.1 0.5-0.1 0.5-0.6 0.8-1 1.6-1 0.6 0 1.3 0.4 1.3 0.9 0 0.4-0.3 0.6-0.9 1s-1.5 0.9-1.5 2v0.3c0 0.2 0.2 0.4 0.4 0.4h1.5c0.2 0 0.4-0.2 0.4-0.4v-0.2c0-0.8 2.3-0.8 2.3-3 0-1.6-1.7-2.8-3.3-2.8z"/>
</svg>
