<svg width="775" height="775" viewBox="0 0 775 775" fill="none" xmlns="http://www.w3.org/2000/svg">
<path d="M419.248 1.52642L434.909 3.05301L450.345 5.31443L465.554 8.08465L480.594 11.4769L495.408 15.4345L509.938 19.9573L524.243 25.0456L538.322 30.6992L552.061 36.8616L565.574 43.5329L578.692 50.6565L591.583 58.2889L604.135 66.4302L616.291 75.0237L628.165 84.0695L639.473 93.5676L650.781 103.461L661.524 113.751L671.814 124.437L681.708 135.744L691.207 147.051L700.254 158.924L708.848 171.079L716.933 183.63L724.623 196.464L731.747 209.637L738.419 223.092L744.525 236.887L750.179 250.908L755.211 265.212L759.791 279.798L763.749 294.554L767.141 309.593L769.912 324.858L772.117 340.292L773.7 355.896L774.661 371.726L775 387.67L774.661 403.669L773.7 419.443L772.117 435.047L769.912 450.538L767.141 465.746L763.749 480.785L759.791 495.541L755.211 510.127L750.179 524.431L744.525 538.509L738.419 552.247L731.747 565.703L724.623 578.875L716.933 591.766L708.848 604.26L700.254 616.416L691.207 628.288L681.708 639.596L671.814 650.903L661.524 661.645L650.781 671.934L639.473 681.828L628.165 691.27L616.291 700.316L604.135 708.909L591.583 716.994L578.692 724.626L565.574 731.806L552.061 738.308L538.322 744.47L524.243 750.124L509.938 755.212L495.408 759.735L480.594 763.693L465.554 767.085L450.345 769.912L434.909 772.117L419.248 773.7L403.473 774.661L387.472 775L371.527 774.661L355.696 773.7L340.091 772.23L324.655 770.025L309.389 767.198L294.406 763.806L279.593 759.848L264.892 755.269L250.531 750.181L236.509 744.527L222.939 738.308L209.426 731.693L196.252 724.513L183.417 716.881L170.922 708.796L158.709 700.146L146.836 691.1L135.527 681.659L124.219 671.765L113.477 661.475L103.186 650.733L93.2918 639.426L83.793 628.119L74.7465 616.246L66.1524 604.034L58.0672 591.54L50.4342 578.649L43.2534 565.476L36.5817 552.021L30.4754 538.282L24.8213 524.205L19.7892 509.901L15.266 495.315L11.2517 480.559L7.85921 465.52L5.08861 450.312L2.88362 434.821L1.30049 419.217L0.339229 403.443L0 387.444L0.339229 371.5L1.30049 355.67L2.88362 340.066L5.08861 324.632L7.85921 309.367L11.2517 294.328L15.266 279.572L19.7892 264.986L24.8213 250.682L30.4754 236.661L36.5817 222.866L43.2534 209.411L50.4342 196.238L58.0672 183.404L66.1524 170.853L74.7465 158.698L83.793 146.825L93.2918 135.518L103.186 124.21L113.477 113.525L124.219 103.235L135.527 93.3415L146.836 83.8433L158.709 74.7976L170.922 66.204L183.417 58.0628L196.252 50.4303L209.426 43.3069L222.939 36.6356L236.678 30.473L250.7 24.8194L265.062 19.7311L279.593 15.2083L294.406 11.2507L309.389 7.85846L324.655 5.08824L340.091 2.82682L355.696 1.3004L371.527 0.282613L387.472 0L403.473 0.282613L419.248 1.52642Z" fill="#18164C"/>
<path fill-rule="evenodd" clip-rule="evenodd" d="M425.053 290.839C454.064 261.195 489.545 247 531.078 247C570.857 247.161 608.992 262.897 637.312 290.839L594.944 333.216C576.786 315.681 555.706 306.704 531.495 306.704C507.532 306.399 484.503 315.99 467.839 333.216C450.307 350.961 441.541 372.254 441.541 396.887C441.156 420.829 450.672 443.868 467.839 460.558C488.42 481.406 517.912 490.837 546.768 485.798C575.624 480.759 600.176 461.889 612.475 435.298H528.156V378.725H679.889C685.504 424.548 669.635 470.395 636.894 502.935C607.466 532.161 571.985 546.983 530.869 546.983C491.019 547.602 452.698 531.65 425.053 502.935C396.85 475.126 382.258 441.566 381.091 402.069L322.41 552L266.874 404.578L212.798 552L94 249H158.097L212.798 389.313L267.709 249L322.41 389.313L376.903 249H441L424.361 291.513C424.591 291.288 424.822 291.063 425.053 290.839Z" fill="white"/>
</svg>
