<svg id="Layer_1" height="512" viewBox="0 0 512 512" width="512" xmlns="http://www.w3.org/2000/svg" xmlns:xlink="http://www.w3.org/1999/xlink" data-name="Layer 1"><linearGradient id="Blue_2" gradientUnits="userSpaceOnUse" x1="6" x2="506" y1="256" y2="256"><stop offset="0" stop-color="#2bc4f3"/><stop offset=".5" stop-color="#00aeee"/><stop offset="1" stop-color="#0095da"/></linearGradient><linearGradient id="linear-gradient" gradientUnits="userSpaceOnUse" x1="154.596" x2="432.772" y1="154.595" y2="432.771"><stop offset="0"/><stop offset="1" stop-opacity="0"/></linearGradient><circle cx="256" cy="256" fill="url(#Blue_2)" r="250"/><path d="m502.233 299.422-144.833-144.829c-25.354-23.019-60.438-36.482-101.185-36.482-84.388 0-144.607 57.661-144.607 137.889 0 41.369 16.012 76.738 43.093 101.3l144.91 144.9a250.221 250.221 0 0 0 202.622-202.778z" fill="url(#linear-gradient)" opacity=".49"/><path d="m256.219 393.889c-84.388 0-144.607-57.661-144.607-137.889s60.219-137.889 144.607-137.889c84.168 0 144.169 57.443 144.169 137.889s-60 137.885-144.169 137.885zm0-67.291c39.952 0 68.872-29.513 68.872-70.591s-28.92-70.594-68.872-70.594-69.31 29.727-69.31 70.587 29.352 70.59 69.31 70.59z" fill="#fff"/></svg>